# xmcd
#
# Track frame offsets:
#	150
#	18260
#	32760
#	47955
#	71145
#	84393
#	104790
#	121988
#	141915
#	158525
#	171553
#	193643
#	202660
#	219213
#	237900
#	254353
#	275153
#
# Disc length: 3911 seconds
#
# Revision: 1
# Processed by: cddbd v1.4PL0 Copyright (c) Steve Scherf et al.
# Submitted via: CDmax 1.8
#
DISCID=f70f4511
DTITLE=Sam Whedon with Grim Orchestra - 17 Songs
DYEAR=1995
DGENRE=Blues
TTITLE0=Eldorado in the back
TTITLE1=When the Clouds Rolls in
TTITLE2=Madeline
TTITLE3=Walking Man
TTITLE4=Working Man
TTITLE5=Morning Hesitates
TTITLE6=Cool of the Morning
TTITLE7=Bright Flower
TTITLE8=Cosmo Woman
TTITLE9=White Man
TTITLE10=Empty Ship
TTITLE11=My Girlfriend's Baggage
TTITLE12=River Song
TTITLE13=Party Shack
TTITLE14=King Biscuit
TTITLE15=Carousel Waltz
TTITLE16=Toaster Song
EXTD=Grim Orchestra Productions\nBOX 70\nHowes Cave, NY 12092
EXTT0=
EXTT1=
EXTT2=
EXTT3=
EXTT4=
EXTT5=
EXTT6=
EXTT7=
EXTT8=
EXTT9=
EXTT10=
EXTT11=
EXTT12=
EXTT13=
EXTT14=
EXTT15=
EXTT16=
PLAYORDER=
